HIERARCHY
ROOT SpineBase
{
  OFFSET 0.000000 0.000000 0.000000
  CHANNELS 6 Xposition Yposition Zposition Zrotation Xrotation Yrotation
  JOINT SpineMid
  {
    OFFSET -0.000000 28.644378 0.000000
    CHANNELS 3 Zrotation Xrotation Yrotation
    JOINT SpineShoulder
    {
      OFFSET 0.042029 21.276412 -0.778995
      CHANNELS 3 Zrotation Xrotation Yrotation
      JOINT Neck
      {
        OFFSET 0.042374 7.043762 -0.553575
        CHANNELS 3 Zrotation Xrotation Yrotation
        JOINT Head
        {
          OFFSET 3.075501 11.662715 3.522322
          CHANNELS 3 Zrotation Xrotation Yrotation
          End Site
          {
            OFFSET 0 0 0
          }
        }
      }
      JOINT ShoulderLeft
      {
        OFFSET -5.421703 -4.223709 -13.068963
        CHANNELS 3 Zrotation Xrotation Yrotation
        JOINT ElbowLeft
        {
          OFFSET -4.586538 -20.975853 -4.820364
          CHANNELS 3 Zrotation Xrotation Yrotation
          JOINT WristLeft
          {
            OFFSET 4.252783 -21.071797 -1.699940
            CHANNELS 3 Zrotation Xrotation Yrotation
            JOINT HandLeft
            {
              OFFSET 0.194542 -6.968690 0.274449
              CHANNELS 3 Zrotation Xrotation Yrotation
              JOINT HandTipLeft
              {
                OFFSET 0.479882 -6.754871 -0.670335
                CHANNELS 3 Zrotation Xrotation Yrotation
                End Site
                {
                  OFFSET 0 0 0
                }
              }
              JOINT ThumbLeft
              {
                OFFSET -2.011070 0.724723 -0.603982
                CHANNELS 3 Zrotation Xrotation Yrotation
                End Site
                {
                  OFFSET 0 0 0
                }
              }
            }
          }
        }
      }
      JOINT ShoulderRight
      {
        OFFSET 10.362544 -3.998405 7.719378
        CHANNELS 3 Zrotation Xrotation Yrotation
        JOINT ElbowRight
        {
          OFFSET 1.199580 -23.886870 5.701209
          CHANNELS 3 Zrotation Xrotation Yrotation
          JOINT WristRight
          {
            OFFSET 0.590632 -25.378431 2.019078
            CHANNELS 3 Zrotation Xrotation Yrotation
            JOINT HandRight
            {
              OFFSET -0.452480 -5.044397 -0.079124
              CHANNELS 3 Zrotation Xrotation Yrotation
              JOINT HandTipRight
              {
                OFFSET -0.769351 -4.667049 -0.625006
                CHANNELS 3 Zrotation Xrotation Yrotation
                End Site
                {
                  OFFSET 0 0 0
                }
              }
              JOINT ThumbRight
              {
                OFFSET 1.774265 0.427761 -0.909753
                CHANNELS 3 Zrotation Xrotation Yrotation
                End Site
                {
                  OFFSET 0 0 0
                }
              }
            }
          }
        }
      }
    }
  }
  JOINT HipLeft
  {
    OFFSET -3.266349 1.432579 -8.245727
    CHANNELS 3 Zrotation Xrotation Yrotation
    JOINT KneeLeft
    {
      OFFSET -5.719215 -26.338738 1.643865
      CHANNELS 3 Zrotation Xrotation Yrotation
      JOINT AnkleLeft
      {
        OFFSET -7.836672 -34.557108 4.502216
        CHANNELS 3 Zrotation Xrotation Yrotation
        JOINT FootLeft
        {
          OFFSET 2.419197 -7.642170 2.405702
          CHANNELS 3 Zrotation Xrotation Yrotation
          End Site
          {
            OFFSET 0 0 0
          }
        }
      }
    }
  }
  JOINT HipRight
  {
    OFFSET 4.005366 -0.178309 1.490975
    CHANNELS 3 Zrotation Xrotation Yrotation
    JOINT KneeRight
    {
      OFFSET -7.159855 -29.563377 4.577149
      CHANNELS 3 Zrotation Xrotation Yrotation
      JOINT AnkleRight
      {
        OFFSET -7.967947 -30.146934 5.129383
        CHANNELS 3 Zrotation Xrotation Yrotation
        JOINT FootRight
        {
          OFFSET 0.935027 -7.806757 -4.551200
          CHANNELS 3 Zrotation Xrotation Yrotation
          End Site
          {
            OFFSET 0 0 0
          }
        }
      }
    }
  }
}
MOTION
Frames: 16
Frame Time: 0.033333
-40.310795 68.002735 360.162205 0.580965 0.726854 -50.473430 -0.530104 0.446596 50.487073 0.081428 0.243749 0.023498 6.197141 -0.319598 -2.393932 0.000000 0.000000 0.000000 -1.032334 -2.908563 0.288974 0.367818 1.243438 -0.359771 -0.980602 -4.803226 -0.213614 2.284963 4.589788 -0.121906 0.000000 0.000000 0.000000 0.000000 0.000000 0.000000 10.594921 -5.808545 3.127274 75.721327 36.270480 -31.638892 65.759191 15.603889 -5.047332 -35.071755 -27.768307 -9.618238 0.000000 0.000000 0.000000 0.000000 0.000000 0.000000 2.582441 -0.349232 50.943949 -2.030437 0.574240 -0.219342 4.394634 32.710654 10.990012 0.000000 0.000000 0.000000 27.109514 5.344914 57.175341 -27.760294 23.195551 -3.816665 -14.250698 7.312366 16.419428 0.000000 0.000000 0.000000
-40.459101 68.012515 359.974171 0.407959 1.009604 -50.021377 -0.446789 0.453375 50.031732 0.058966 0.229562 0.016086 6.848845 -0.866793 -2.392540 0.000000 0.000000 0.000000 -1.353952 -2.839068 0.328258 0.830851 0.961478 -0.408007 -0.493767 -5.068294 -0.182585 1.358558 5.086285 -0.024081 0.000000 0.000000 0.000000 0.000000 0.000000 0.000000 10.742441 -6.010629 3.181691 82.963884 36.017919 -35.156352 52.659674 14.640505 -16.321613 -26.102435 -33.703421 -2.538596 0.000000 0.000000 0.000000 0.000000 0.000000 0.000000 3.335382 -0.262164 50.573262 -2.499006 0.696515 -0.266716 9.079051 23.610623 8.171405 0.000000 0.000000 0.000000 28.211572 5.296183 56.943076 -28.419754 23.581564 -3.712800 -13.570039 7.674900 16.083323 0.000000 0.000000 0.000000
-40.497942 67.936125 359.992914 0.230024 1.322717 -49.224455 -0.133879 0.397329 49.236922 0.061238 0.214129 0.015321 7.701000 -1.629599 -2.379577 0.000000 0.000000 0.000000 -1.807000 -2.876143 0.421743 1.307886 0.968333 -0.523650 0.471030 -5.825175 -0.119989 0.025652 7.372351 0.168929 0.000000 0.000000 0.000000 0.000000 0.000000 0.000000 10.765328 -6.033915 3.188606 87.673905 37.006881 -38.963631 32.493947 7.882599 -12.680319 -21.861775 -27.483080 -7.126138 0.000000 0.000000 0.000000 0.000000 0.000000 0.000000 3.437956 -0.120714 49.701567 -2.656898 0.161251 -0.173324 7.022821 18.886156 6.503921 0.000000 0.000000 0.000000 28.916207 4.844890 56.359169 -28.687135 23.915128 -3.675128 -8.330184 9.900841 13.308952 0.000000 0.000000 0.000000
-40.511833 68.025770 359.869328 0.230477 1.607900 -49.418957 -0.114425 0.337396 49.429315 0.041255 0.201761 0.011514 8.261984 -2.405922 -2.294037 0.000000 0.000000 0.000000 -1.822651 -2.842828 0.382163 1.684225 1.670485 -0.319542 1.160875 -5.912253 -0.162831 -1.724953 6.958964 0.334392 0.000000 0.000000 0.000000 0.000000 0.000000 0.000000 10.821845 -6.246245 3.236853 88.932544 38.846875 -41.879904 12.585402 -0.751157 -11.091471 -9.670408 -16.814744 -7.784045 0.000000 0.000000 0.000000 0.000000 0.000000 0.000000 3.621874 -0.272864 49.897478 -2.683643 0.215355 -0.190197 12.422573 31.023464 10.275815 0.000000 0.000000 0.000000 29.120880 4.741976 56.632962 -28.678398 24.078330 -3.697679 1.698459 13.756519 7.585930 0.000000 0.000000 0.000000
-40.523720 68.147824 359.765354 0.279530 1.795557 -49.401042 -0.109530 0.288105 49.410146 0.029119 0.188862 0.010523 8.594289 -2.917737 -2.234746 0.000000 0.000000 0.000000 -1.508798 -3.242061 0.375533 1.032709 2.736380 -0.108267 2.511340 -6.967143 -0.214282 -3.527494 7.962778 0.572469 0.000000 0.000000 0.000000 0.000000 0.000000 0.000000 10.823154 -6.381845 3.264490 85.334756 39.619342 -40.474492 0.814670 -8.315935 -9.228727 0.378158 -5.354280 -10.519770 0.000000 0.000000 0.000000 0.000000 0.000000 0.000000 3.678644 -0.430789 49.876124 -2.630910 0.300932 -0.206940 14.023026 35.847425 11.605246 0.000000 0.000000 0.000000 29.753672 4.843388 56.772195 -29.254071 24.581464 -3.676784 15.306098 16.385555 -0.722084 0.000000 0.000000 0.000000
-40.486028 68.290744 359.704857 0.405383 1.880089 -49.277446 -0.145962 0.242082 49.285434 0.017953 0.163311 0.012100 8.772443 -3.306658 -2.178267 0.000000 0.000000 0.000000 -1.301309 -3.322862 0.326834 0.444532 3.124569 0.059385 3.418720 -7.384094 -0.219557 -4.729317 8.506196 0.752149 0.000000 0.000000 0.000000 0.000000 0.000000 0.000000 10.769543 -6.437956 3.270706 76.995756 40.812409 -36.752300 4.047747 -7.819061 -6.816996 1.826075 -5.144428 -9.428956 0.000000 0.000000 0.000000 0.000000 0.000000 0.000000 3.502660 -0.645988 49.729513 -2.492583 0.268893 -0.195983 11.888151 32.778659 10.893493 0.000000 0.000000 0.000000 29.596406 4.733145 56.672105 -29.197762 24.457380 -3.714377 28.360015 17.577173 -9.043937 0.000000 0.000000 0.000000
-40.477349 68.418561 359.681848 0.506295 1.871151 -49.216004 -0.162746 0.216781 49.224258 0.041030 0.112559 0.017801 8.678407 -3.470973 -2.119303 0.000000 0.000000 0.000000 -0.965252 -3.599136 0.314012 0.080559 3.433632 0.073416 3.844126 -7.196402 -0.151689 -6.041876 7.549197 0.847487 0.000000 0.000000 0.000000 0.000000 0.000000 0.000000 10.674969 -6.377000 3.249419 70.136210 40.565459 -32.776214 7.824268 -7.069823 -4.635191 4.994172 -6.086227 -7.004352 0.000000 0.000000 0.000000 0.000000 0.000000 0.000000 3.317707 -0.727284 49.644634 -2.314542 -0.267504 -0.062084 16.632331 39.130931 11.897493 0.000000 0.000000 0.000000 29.163821 4.768735 56.512122 -28.992630 24.024173 -3.769282 38.598927 17.494861 -15.717913 0.000000 0.000000 0.000000
-40.481614 68.521985 359.685055 0.586765 1.812358 -49.004963 -0.179605 0.208581 49.014062 0.062199 0.089406 0.022856 8.597239 -3.571252 -2.080195 0.000000 0.000000 0.000000 -0.824379 -3.909924 0.350129 0.122299 3.463859 -0.061363 3.464048 -7.738082 -0.097945 -6.276663 10.661715 1.224890 0.000000 0.000000 0.000000 0.000000 0.000000 0.000000 10.590287 -6.305455 3.227018 69.556540 39.646162 -31.662861 8.102056 -6.578187 -4.861912 9.045814 -4.999132 -6.585030 0.000000 0.000000 0.000000 0.000000 0.000000 0.000000 3.119028 -0.728471 49.406410 -2.313619 -0.600991 0.007208 14.187479 33.877152 10.581366 0.000000 0.000000 0.000000 28.236107 4.635454 56.099194 -28.353167 23.201804 -3.857162 45.353548 16.731468 -20.161219 0.000000 0.000000 0.000000
-40.493340 68.617714 359.775219 0.637681 1.701814 -48.951264 -0.228578 0.226796 48.960891 0.078360 0.075591 0.026118 8.588124 -3.665381 -2.049106 0.000000 0.000000 0.000000 -0.835267 -4.534015 0.492441 0.466179 3.599795 -0.369411 2.564792 -7.624351 -0.054083 -4.825916 10.744736 1.002611 0.000000 0.000000 0.000000 0.000000 0.000000 0.000000 10.540423 -6.232137 3.207703 71.705488 38.599688 -31.809886 12.583407 -4.559317 -4.498338 10.076999 -6.131354 -5.774654 0.000000 0.000000 0.000000 0.000000 0.000000 0.000000 2.974086 -0.688142 49.342163 -2.502335 -0.946703 0.058833 8.562258 19.049484 6.247777 0.000000 0.000000 0.000000 27.268436 4.720112 55.771665 -27.833410 22.338766 -3.931414 51.339508 16.189973 -24.094125 0.000000 0.000000 0.000000
-40.494877 68.659139 359.829510 0.677641 1.524286 -49.183582 -0.291165 0.256929 49.194168 0.084776 0.058961 0.028266 8.520782 -3.429264 -2.101525 0.000000 0.000000 0.000000 -0.823530 -5.016929 0.617189 0.777628 3.568280 -0.672153 0.123787 -6.416297 -0.138708 -1.749543 5.710667 0.347530 0.000000 0.000000 0.000000 0.000000 0.000000 0.000000 10.508423 -6.107657 3.180063 79.610220 37.820872 -35.209412 9.711133 -5.427698 -6.061072 13.549724 -6.473439 -3.686835 0.000000 0.000000 0.000000 0.000000 0.000000 0.000000 2.785722 -0.602703 49.563230 -2.665889 -1.057119 0.059400 1.045416 11.717539 2.815478 0.000000 0.000000 0.000000 26.111472 4.879053 55.672024 -27.094750 21.227090 -3.969490 51.186346 16.785308 -24.369065 0.000000 0.000000 0.000000
-40.482332 68.641559 359.812503 0.698330 1.401255 -49.357347 -0.319942 0.242530 49.367866 0.071348 0.031909 0.027382 8.631437 -3.402993 -2.107763 0.000000 0.000000 0.000000 -0.966152 -4.902618 0.652589 0.254471 3.066590 -0.731829 0.488686 -5.508281 -0.110912 -1.798309 3.410708 0.239784 0.000000 0.000000 0.000000 0.000000 0.000000 0.000000 10.527179 -5.972149 3.155098 85.361160 37.744582 -38.411164 10.110693 -5.160723 -6.756726 12.211356 -8.062217 -2.450751 0.000000 0.000000 0.000000 0.000000 0.000000 0.000000 2.655425 -0.553049 49.730130 -2.785727 -0.824925 -0.009910 1.517570 11.742863 3.041604 0.000000 0.000000 0.000000 25.071074 4.765742 55.607375 -26.100202 20.050750 -3.946509 45.015485 17.472407 -20.922383 0.000000 0.000000 0.000000
-40.470231 68.563541 359.773125 0.693568 1.320287 -49.519676 -0.337164 0.231888 49.529845 0.051934 0.018809 0.025024 8.795895 -3.464842 -2.099089 0.000000 0.000000 0.000000 -1.398084 -4.760454 0.726873 0.732573 3.005504 -0.840989 0.981550 -5.824710 -0.073986 -2.532518 2.945265 0.241365 0.000000 0.000000 0.000000 0.000000 0.000000 0.000000 10.568024 -5.885327 3.141773 84.946924 37.625341 -38.033652 15.839587 -1.994868 -6.970643 9.565398 -9.445183 -2.733302 0.000000 0.000000 0.000000 0.000000 0.000000 0.000000 2.691897 -0.584615 49.921315 -2.856409 -0.421409 -0.103428 -2.560602 3.913220 -0.424425 0.000000 0.000000 0.000000 24.276527 4.570302 55.607493 -25.272326 19.271850 -3.920227 38.560886 17.723856 -17.023280 0.000000 0.000000 0.000000
-40.458212 68.412158 359.708153 0.652821 1.290651 -49.663529 -0.341080 0.223077 49.672665 0.021240 0.022068 0.020186 9.210798 -3.686831 -2.098037 0.000000 0.000000 0.000000 -1.564866 -4.832337 0.798821 0.984732 3.101577 -0.927266 1.481611 -5.788102 -0.028396 -2.475832 4.129414 0.244204 0.000000 0.000000 0.000000 0.000000 0.000000 0.000000 10.647204 -5.855835 3.143273 80.947887 37.077205 -35.173759 20.981260 2.783696 -10.082707 5.175540 -11.182250 -3.834950 0.000000 0.000000 0.000000 0.000000 0.000000 0.000000 2.957301 -0.697898 50.140972 -2.943196 0.153386 -0.225784 -6.562894 -0.112718 -2.956479 0.000000 0.000000 0.000000 23.764200 4.250215 55.679011 -24.555886 18.879527 -3.892901 24.402514 16.704959 -7.943220 0.000000 0.000000 0.000000
-40.430595 68.378395 359.550419 0.676991 1.370500 -50.029028 -0.337334 0.167509 50.036330 -0.011839 0.009615 0.016502 9.453111 -3.961291 -2.053178 0.000000 0.000000 0.000000 -1.031472 -4.562186 0.654340 -0.477139 2.191203 -0.743413 3.091544 -2.598614 0.075779 -3.481276 -1.249780 -0.095385 0.000000 0.000000 0.000000 0.000000 0.000000 0.000000 10.694444 -5.883814 3.153256 75.533501 37.057423 -32.302207 20.969277 7.151876 -15.286736 6.409337 -12.640030 -0.620994 0.000000 0.000000 0.000000 0.000000 0.000000 0.000000 3.215516 -0.988431 50.583436 -2.766733 0.874652 -0.356656 -4.616927 12.046607 2.463792 0.000000 0.000000 0.000000 23.500144 4.031626 56.032493 -24.149937 18.767908 -3.883243 18.782263 15.243151 -4.363569 0.000000 0.000000 0.000000
-40.431149 68.316450 359.449720 0.670703 1.424255 -49.941300 -0.338393 0.154118 49.947465 -0.034488 0.016064 0.013364 9.728427 -4.179303 -2.042268 0.000000 0.000000 0.000000 -0.408741 -5.014109 0.645764 -1.114024 2.364044 -0.718769 3.970727 -1.775789 0.151606 -5.193309 -1.184902 0.004197 0.000000 0.000000 0.000000 0.000000 0.000000 0.000000 10.736234 -5.934482 3.167334 69.307397 35.920810 -28.278337 20.540523 5.688641 -12.467836 5.129972 -7.082644 -8.369004 0.000000 0.000000 0.000000 0.000000 0.000000 0.000000 3.500039 -1.209708 50.574432 -2.605003 1.401542 -0.445634 -5.406412 9.584607 1.460106 0.000000 0.000000 0.000000 24.185692 4.029178 56.128795 -24.717170 19.411485 -3.867695 9.816151 15.174450 1.536798 0.000000 0.000000 0.000000
-40.423026 68.274019 359.322854 0.693813 1.478981 -49.848075 -0.317132 0.129931 49.854135 -0.045473 0.006255 0.013078 9.936739 -4.390326 -2.025615 0.000000 0.000000 0.000000 -0.225895 -4.352691 0.461895 -1.363271 1.436696 -0.581968 3.691047 -0.721710 0.173136 -4.565493 -3.905149 -0.263143 0.000000 0.000000 0.000000 0.000000 0.000000 0.000000 10.730048 -5.947265 3.169370 67.972735 35.943147 -27.698415 15.426948 5.817214 -14.257340 10.165404 -5.336410 -6.349017 0.000000 0.000000 0.000000 0.000000 0.000000 0.000000 3.532302 -1.375547 50.498157 -1.897642 2.127257 -0.543850 -5.129446 16.723199 4.755317 0.000000 0.000000 0.000000 24.138941 3.684827 56.102721 -24.521865 19.515312 -3.858387 0.733906 8.914886 6.703104 0.000000 0.000000 0.000000
